<?xml version="1.0" encoding="utf-8"?>
<!-- Generator: Adobe Illustrator 24.3.0, SVG Export Plug-In . SVG Version: 6.00 Build 0)  -->
<svg version="1.1" id="Layer_1" xmlns="http://www.w3.org/2000/svg" xmlns:xlink="http://www.w3.org/1999/xlink" x="0px" y="0px"
	 viewBox="0 0 468 587.2" style="enable-background:new 0 0 468 587.2;" xml:space="preserve">
<style type="text/css">
	.st0{fill:#FFFFFF;}
	.st1{fill:#FF7900;}
	.st2{fill:#FDFEFF;}
	.st3{fill:#FF6D1A;}
	.st4{fill:none;}
	.st5{fill:#2B2C2E;}
</style>
<path class="st0" d="M2438.7,327c0,45.5-13.2,89-37.8,126.1c-8.2,12.4-17.7,24.1-28.4,34.9l-0.8,0.8c-4.2,4.2-8.6,8.3-13,12.1
	c-41.5,35.6-93.7,55.1-149,55.1c-61.2,0-118.7-23.8-161.9-67.1c-43.3-43.2-67.1-100.8-67.1-161.9c0-61.2,23.8-118.7,67.1-161.9
	c35.3-35.3,80.2-57.7,128.7-64.7c2.3-30.7,15.4-59.2,37.4-81.2c24.4-24.4,56.8-37.8,91.2-37.8c21.1,0,42.1,5.2,60.6,15.1l15.4,8.2
	l0,17.4c0,34.4-13.4,66.8-37.8,91.1c-5.9,5.9-12.2,11.1-18.9,15.7c26.5,15.4,50,36.1,68.4,60.7C2422.8,229.4,2438.7,277,2438.7,327z
	"/>
<g>
	<path class="st0" d="M1089.1,1101.3c-58.8,0-114.1-22.9-155.7-64.5c-41.6-41.6-64.5-96.9-64.5-155.7c0-58.8,22.9-114.1,64.5-155.7
		c41.6-41.6,96.9-64.5,155.7-64.5s114.1,22.9,155.7,64.5c41.6,41.6,64.5,96.9,64.5,155.7c0,58.8-22.9,114.1-64.5,155.7
		C1203.2,1078.4,1147.9,1101.3,1089.1,1101.3z"/>
	<path d="M1089.1,661.5c29.7,0,58.4,5.8,85.5,17.3c26.2,11.1,49.6,26.9,69.8,47.1c20.2,20.2,36,43.7,47.1,69.8
		c11.5,27.1,17.3,55.8,17.3,85.5c0,29.7-5.8,58.4-17.3,85.5c-11.1,26.2-26.9,49.6-47.1,69.8c-20.2,20.2-43.7,36-69.8,47.1
		c-27.1,11.5-55.8,17.3-85.5,17.3c-29.7,0-58.4-5.8-85.5-17.3c-26.2-11.1-49.6-26.9-69.8-47.1c-20.2-20.2-36-43.7-47.1-69.8
		c-11.5-27.1-17.3-55.8-17.3-85.5c0-29.7,5.8-58.4,17.3-85.5c11.1-26.2,26.9-49.6,47.1-69.8c20.2-20.2,43.7-36,69.8-47.1
		C1030.7,667.3,1059.4,661.5,1089.1,661.5 M1089.1,660.5c-121.9,0-220.7,98.8-220.7,220.7s98.8,220.7,220.7,220.7
		c121.9,0,220.7-98.8,220.7-220.7S1211,660.5,1089.1,660.5L1089.1,660.5z"/>
</g>
<g>
	<path class="st0" d="M1196.4,961.5c-58.8,0-114.1-22.9-155.7-64.5c-41.6-41.6-64.5-96.9-64.5-155.7c0-58.8,22.9-114.1,64.5-155.7
		c41.6-41.6,96.9-64.5,155.7-64.5s114.1,22.9,155.7,64.5c41.6,41.6,64.5,96.9,64.5,155.7c0,58.8-22.9,114.1-64.5,155.7
		C1310.5,938.6,1255.2,961.5,1196.4,961.5z"/>
	<path d="M1196.4,521.7c29.7,0,58.4,5.8,85.5,17.3c26.2,11.1,49.6,26.9,69.8,47.1c20.2,20.2,36,43.7,47.1,69.8
		c11.5,27.1,17.3,55.8,17.3,85.5c0,29.7-5.8,58.4-17.3,85.5c-11.1,26.2-26.9,49.6-47.1,69.8c-20.2,20.2-43.7,36-69.8,47.1
		c-27.1,11.5-55.8,17.3-85.5,17.3s-58.4-5.8-85.5-17.3c-26.2-11.1-49.6-26.9-69.8-47.1c-20.2-20.2-36-43.7-47.1-69.8
		c-11.5-27.1-17.3-55.8-17.3-85.5c0-29.7,5.8-58.4,17.3-85.5c11.1-26.2,26.9-49.6,47.1-69.8c20.2-20.2,43.7-36,69.8-47.1
		C1138,527.5,1166.8,521.7,1196.4,521.7 M1196.4,520.7c-121.9,0-220.7,98.8-220.7,220.7S1074.6,962,1196.4,962
		s220.7-98.8,220.7-220.7S1318.3,520.7,1196.4,520.7L1196.4,520.7z"/>
</g>
<path class="st1" d="M2351.2,468.3C2315,504.6,2265,527,2209.7,527c-110.5,0-200-89.5-200-200c0-110.5,89.5-200,200-200
	c20.3,0,40,3,58.5,8.7c-36.1,36.2-58.5,86.1-58.5,141.3C2209.7,367.1,2269.3,443.3,2351.2,468.3z"/>
<path class="st0" d="M2372.5,488c-0.2,0.3-0.5,0.5-0.8,0.8l-12.3,12.3l-0.7-0.2c4.5-3.9,8.8-7.9,13-12.1L2372.5,488z"/>
<path d="M2322.8,92.7c19.5-19.5,29.3-45.1,29.3-70.6c-37.8-20.1-85.8-14.3-117.7,17.6c-19.5,19.5-29.3,45.1-29.3,70.6
	C2242.9,130.4,2290.9,124.6,2322.8,92.7z"/>
<g>
	<path class="st2" d="M463,351.9c0,45.5-13.2,89-37.8,126.1c-8.2,12.4-17.7,24.1-28.4,34.9l-0.8,0.8c-4.2,4.2-8.6,8.3-13,12.1
		c-41.5,35.6-93.7,55.1-149,55.1c-61.2,0-118.7-23.8-161.9-67.1C28.8,470.6,5,413.1,5,351.9C5,290.7,28.8,233.2,72.1,190
		c31.8-31.8,71.3-53.1,114.3-62.1c8.3-1.8,14.7-8.4,16.3-16.8c4.8-25.2,17-48.5,35.5-67C262.6,19.7,295,6.3,329.4,6.3
		c21.1,0,42,5.2,60.6,15.1l4.1,2.2c6.9,3.7,11.2,10.9,11.2,18.7l0,4.7c0,34.4-13.5,66.8-37.8,91.1c-1.7,1.7-3.5,3.4-5.4,5.1
		c-6.1,5.5-5.5,15.3,1.3,20c20.5,14.1,38.7,31.4,53.6,51.3C447.1,254.3,463,301.9,463,351.9z"/>
</g>
<path class="st3" d="M360.4,487.9c7,2.8,8.5,11.9,2.7,16.8c-34.8,29.5-79.9,47.2-129.1,47.2c-108.1,0-196.2-85.8-199.9-193
	c-3.9-114,89.2-208.9,203.3-207c13.3,0.2,26.3,1.7,38.8,4.4c7.3,1.6,10.2,10.4,5.4,16c-29.7,34.9-47.6,80.1-47.6,129.5
	C234,386.3,286.3,458.6,360.4,487.9z"/>
<path class="st4" d="M396.8,512.9c-0.2,0.3-0.5,0.5-0.8,0.8L383.7,526l-0.7-0.2c4.5-3.9,8.8-7.9,13-12.1L396.8,512.9z"/>
<path class="st5" d="M347.1,117.6c17.2-18.5,27.4-40.9,29.1-64.2c0.3-4-2-7.7-5.6-9.3c-36.8-16.6-81.6-9.8-111.8,20.5
	c-15.6,15.6-23.5,33.1-27.2,49.6c-1.4,6,3.3,11.7,9.5,11.5C295.8,124.8,314.5,152.7,347.1,117.6z"/>
<rect x="715.3" y="-1022.7" class="st3" width="228.4" height="228.4"/>
<rect x="1035.6" y="-1022.7" class="st2" width="228.4" height="228.4"/>
<rect x="377.6" y="-1022.7" class="st5" width="228.4" height="228.4"/>
</svg>
