<svg width="304.8mm" height="95.25mm" viewBox="0 0 304.8 95.25" xmlns="http://www.w3.org/2000/svg"><g id="svgGroup" stroke-linecap="round" fill-rule="evenodd" font-size="9pt" stroke="#000" stroke-width="0.25mm" fill="none" style="stroke:#000;stroke-width:0.25mm;fill:none"><path d="M 0 95.25 L 304.8 95.25 L 304.8 0 L 0 0 L 0 95.25 Z M 245.913 40.625 L 258.913 40.625 A 0.5 0.5 0 0 1 259.413 41.125 L 259.413 54.125 A 0.5 0.5 0 0 1 258.913 54.625 L 245.913 54.625 A 0.5 0.5 0 0 1 245.413 54.125 L 245.413 41.125 A 0.5 0.5 0 0 1 245.913 40.625 Z M 22.075 2.525 L 35.075 2.525 A 0.5 0.5 0 0 1 35.575 3.025 L 35.575 16.025 A 0.5 0.5 0 0 1 35.075 16.525 L 22.075 16.525 A 0.5 0.5 0 0 1 21.575 16.025 L 21.575 3.025 A 0.5 0.5 0 0 1 22.075 2.525 Z M 7.788 21.575 L 20.788 21.575 A 0.5 0.5 0 0 1 21.288 22.075 L 21.288 35.075 A 0.5 0.5 0 0 1 20.788 35.575 L 7.788 35.575 A 0.5 0.5 0 0 1 7.288 35.075 L 7.288 22.075 A 0.5 0.5 0 0 1 7.788 21.575 Z M 31.6 21.575 L 44.6 21.575 A 0.5 0.5 0 0 1 45.1 22.075 L 45.1 35.075 A 0.5 0.5 0 0 1 44.6 35.575 L 31.6 35.575 A 0.5 0.5 0 0 1 31.1 35.075 L 31.1 22.075 A 0.5 0.5 0 0 1 31.6 21.575 Z M 50.65 21.575 L 63.65 21.575 A 0.5 0.5 0 0 1 64.15 22.075 L 64.15 35.075 A 0.5 0.5 0 0 1 63.65 35.575 L 50.65 35.575 A 0.5 0.5 0 0 1 50.15 35.075 L 50.15 22.075 A 0.5 0.5 0 0 1 50.65 21.575 Z M 69.7 21.575 L 82.7 21.575 A 0.5 0.5 0 0 1 83.2 22.075 L 83.2 35.075 A 0.5 0.5 0 0 1 82.7 35.575 L 69.7 35.575 A 0.5 0.5 0 0 1 69.2 35.075 L 69.2 22.075 A 0.5 0.5 0 0 1 69.7 21.575 Z M 88.75 21.575 L 101.75 21.575 A 0.5 0.5 0 0 1 102.25 22.075 L 102.25 35.075 A 0.5 0.5 0 0 1 101.75 35.575 L 88.75 35.575 A 0.5 0.5 0 0 1 88.25 35.075 L 88.25 22.075 A 0.5 0.5 0 0 1 88.75 21.575 Z M 107.8 21.575 L 120.8 21.575 A 0.5 0.5 0 0 1 121.3 22.075 L 121.3 35.075 A 0.5 0.5 0 0 1 120.8 35.575 L 107.8 35.575 A 0.5 0.5 0 0 1 107.3 35.075 L 107.3 22.075 A 0.5 0.5 0 0 1 107.8 21.575 Z M 126.85 21.575 L 139.85 21.575 A 0.5 0.5 0 0 1 140.35 22.075 L 140.35 35.075 A 0.5 0.5 0 0 1 139.85 35.575 L 126.85 35.575 A 0.5 0.5 0 0 1 126.35 35.075 L 126.35 22.075 A 0.5 0.5 0 0 1 126.85 21.575 Z M 145.9 21.575 L 158.9 21.575 A 0.5 0.5 0 0 1 159.4 22.075 L 159.4 35.075 A 0.5 0.5 0 0 1 158.9 35.575 L 145.9 35.575 A 0.5 0.5 0 0 1 145.4 35.075 L 145.4 22.075 A 0.5 0.5 0 0 1 145.9 21.575 Z M 164.95 21.575 L 177.95 21.575 A 0.5 0.5 0 0 1 178.45 22.075 L 178.45 35.075 A 0.5 0.5 0 0 1 177.95 35.575 L 164.95 35.575 A 0.5 0.5 0 0 1 164.45 35.075 L 164.45 22.075 A 0.5 0.5 0 0 1 164.95 21.575 Z M 184 21.575 L 197 21.575 A 0.5 0.5 0 0 1 197.5 22.075 L 197.5 35.075 A 0.5 0.5 0 0 1 197 35.575 L 184 35.575 A 0.5 0.5 0 0 1 183.5 35.075 L 183.5 22.075 A 0.5 0.5 0 0 1 184 21.575 Z M 203.05 21.575 L 216.05 21.575 A 0.5 0.5 0 0 1 216.55 22.075 L 216.55 35.075 A 0.5 0.5 0 0 1 216.05 35.575 L 203.05 35.575 A 0.5 0.5 0 0 1 202.55 35.075 L 202.55 22.075 A 0.5 0.5 0 0 1 203.05 21.575 Z M 222.1 21.575 L 235.1 21.575 A 0.5 0.5 0 0 1 235.6 22.075 L 235.6 35.075 A 0.5 0.5 0 0 1 235.1 35.575 L 222.1 35.575 A 0.5 0.5 0 0 1 221.6 35.075 L 221.6 22.075 A 0.5 0.5 0 0 1 222.1 21.575 Z M 241.15 21.575 L 254.15 21.575 A 0.5 0.5 0 0 1 254.65 22.075 L 254.65 35.075 A 0.5 0.5 0 0 1 254.15 35.575 L 241.15 35.575 A 0.5 0.5 0 0 1 240.65 35.075 L 240.65 22.075 A 0.5 0.5 0 0 1 241.15 21.575 Z M 260.2 21.575 L 273.2 21.575 A 0.5 0.5 0 0 1 273.7 22.075 L 273.7 35.075 A 0.5 0.5 0 0 1 273.2 35.575 L 260.2 35.575 A 0.5 0.5 0 0 1 259.7 35.075 L 259.7 22.075 A 0.5 0.5 0 0 1 260.2 21.575 Z M 284.013 21.575 L 297.013 21.575 A 0.5 0.5 0 0 1 297.513 22.075 L 297.513 35.075 A 0.5 0.5 0 0 1 297.013 35.575 L 284.013 35.575 A 0.5 0.5 0 0 1 283.513 35.075 L 283.513 22.075 A 0.5 0.5 0 0 1 284.013 21.575 Z M 10.169 40.625 L 23.169 40.625 A 0.5 0.5 0 0 1 23.669 41.125 L 23.669 54.125 A 0.5 0.5 0 0 1 23.169 54.625 L 10.169 54.625 A 0.5 0.5 0 0 1 9.669 54.125 L 9.669 41.125 A 0.5 0.5 0 0 1 10.169 40.625 Z M 36.363 40.625 L 49.363 40.625 A 0.5 0.5 0 0 1 49.863 41.125 L 49.863 54.125 A 0.5 0.5 0 0 1 49.363 54.625 L 36.363 54.625 A 0.5 0.5 0 0 1 35.863 54.125 L 35.863 41.125 A 0.5 0.5 0 0 1 36.363 40.625 Z M 74.463 40.625 L 87.463 40.625 A 0.5 0.5 0 0 1 87.963 41.125 L 87.963 54.125 A 0.5 0.5 0 0 1 87.463 54.625 L 74.463 54.625 A 0.5 0.5 0 0 1 73.963 54.125 L 73.963 41.125 A 0.5 0.5 0 0 1 74.463 40.625 Z M 93.513 40.625 L 106.513 40.625 A 0.5 0.5 0 0 1 107.013 41.125 L 107.013 54.125 A 0.5 0.5 0 0 1 106.513 54.625 L 93.513 54.625 A 0.5 0.5 0 0 1 93.013 54.125 L 93.013 41.125 A 0.5 0.5 0 0 1 93.513 40.625 Z M 112.563 40.625 L 125.563 40.625 A 0.5 0.5 0 0 1 126.063 41.125 L 126.063 54.125 A 0.5 0.5 0 0 1 125.563 54.625 L 112.563 54.625 A 0.5 0.5 0 0 1 112.063 54.125 L 112.063 41.125 A 0.5 0.5 0 0 1 112.563 40.625 Z M 131.613 40.625 L 144.613 40.625 A 0.5 0.5 0 0 1 145.113 41.125 L 145.113 54.125 A 0.5 0.5 0 0 1 144.613 54.625 L 131.613 54.625 A 0.5 0.5 0 0 1 131.113 54.125 L 131.113 41.125 A 0.5 0.5 0 0 1 131.613 40.625 Z M 150.663 40.625 L 163.663 40.625 A 0.5 0.5 0 0 1 164.163 41.125 L 164.163 54.125 A 0.5 0.5 0 0 1 163.663 54.625 L 150.663 54.625 A 0.5 0.5 0 0 1 150.163 54.125 L 150.163 41.125 A 0.5 0.5 0 0 1 150.663 40.625 Z M 169.713 40.625 L 182.713 40.625 A 0.5 0.5 0 0 1 183.213 41.125 L 183.213 54.125 A 0.5 0.5 0 0 1 182.713 54.625 L 169.713 54.625 A 0.5 0.5 0 0 1 169.213 54.125 L 169.213 41.125 A 0.5 0.5 0 0 1 169.713 40.625 Z M 188.763 40.625 L 201.763 40.625 A 0.5 0.5 0 0 1 202.263 41.125 L 202.263 54.125 A 0.5 0.5 0 0 1 201.763 54.625 L 188.763 54.625 A 0.5 0.5 0 0 1 188.263 54.125 L 188.263 41.125 A 0.5 0.5 0 0 1 188.763 40.625 Z M 207.813 40.625 L 220.813 40.625 A 0.5 0.5 0 0 1 221.313 41.125 L 221.313 54.125 A 0.5 0.5 0 0 1 220.813 54.625 L 207.813 54.625 A 0.5 0.5 0 0 1 207.313 54.125 L 207.313 41.125 A 0.5 0.5 0 0 1 207.813 40.625 Z M 226.863 40.625 L 239.863 40.625 A 0.5 0.5 0 0 1 240.363 41.125 L 240.363 54.125 A 0.5 0.5 0 0 1 239.863 54.625 L 226.863 54.625 A 0.5 0.5 0 0 1 226.363 54.125 L 226.363 41.125 A 0.5 0.5 0 0 1 226.863 40.625 Z M 276.869 40.625 L 289.869 40.625 A 0.5 0.5 0 0 1 290.369 41.125 L 290.369 54.125 A 0.5 0.5 0 0 1 289.869 54.625 L 276.869 54.625 A 0.5 0.5 0 0 1 276.369 54.125 L 276.369 41.125 A 0.5 0.5 0 0 1 276.869 40.625 Z M 12.55 59.675 L 25.55 59.675 A 0.5 0.5 0 0 1 26.05 60.175 L 26.05 73.175 A 0.5 0.5 0 0 1 25.55 73.675 L 12.55 73.675 A 0.5 0.5 0 0 1 12.05 73.175 L 12.05 60.175 A 0.5 0.5 0 0 1 12.55 59.675 Z M 41.125 59.675 L 54.125 59.675 A 0.5 0.5 0 0 1 54.625 60.175 L 54.625 73.175 A 0.5 0.5 0 0 1 54.125 73.675 L 41.125 73.675 A 0.5 0.5 0 0 1 40.625 73.175 L 40.625 60.175 A 0.5 0.5 0 0 1 41.125 59.675 Z M 60.175 59.675 L 73.175 59.675 A 0.5 0.5 0 0 1 73.675 60.175 L 73.675 73.175 A 0.5 0.5 0 0 1 73.175 73.675 L 60.175 73.675 A 0.5 0.5 0 0 1 59.675 73.175 L 59.675 60.175 A 0.5 0.5 0 0 1 60.175 59.675 Z M 79.225 59.675 L 92.225 59.675 A 0.5 0.5 0 0 1 92.725 60.175 L 92.725 73.175 A 0.5 0.5 0 0 1 92.225 73.675 L 79.225 73.675 A 0.5 0.5 0 0 1 78.725 73.175 L 78.725 60.175 A 0.5 0.5 0 0 1 79.225 59.675 Z M 98.275 59.675 L 111.275 59.675 A 0.5 0.5 0 0 1 111.775 60.175 L 111.775 73.175 A 0.5 0.5 0 0 1 111.275 73.675 L 98.275 73.675 A 0.5 0.5 0 0 1 97.775 73.175 L 97.775 60.175 A 0.5 0.5 0 0 1 98.275 59.675 Z M 136.375 59.675 L 149.375 59.675 A 0.5 0.5 0 0 1 149.875 60.175 L 149.875 73.175 A 0.5 0.5 0 0 1 149.375 73.675 L 136.375 73.675 A 0.5 0.5 0 0 1 135.875 73.175 L 135.875 60.175 A 0.5 0.5 0 0 1 136.375 59.675 Z M 155.425 59.675 L 168.425 59.675 A 0.5 0.5 0 0 1 168.925 60.175 L 168.925 73.175 A 0.5 0.5 0 0 1 168.425 73.675 L 155.425 73.675 A 0.5 0.5 0 0 1 154.925 73.175 L 154.925 60.175 A 0.5 0.5 0 0 1 155.425 59.675 Z M 174.475 59.675 L 187.475 59.675 A 0.5 0.5 0 0 1 187.975 60.175 L 187.975 73.175 A 0.5 0.5 0 0 1 187.475 73.675 L 174.475 73.675 A 0.5 0.5 0 0 1 173.975 73.175 L 173.975 60.175 A 0.5 0.5 0 0 1 174.475 59.675 Z M 193.525 59.675 L 206.525 59.675 A 0.5 0.5 0 0 1 207.025 60.175 L 207.025 73.175 A 0.5 0.5 0 0 1 206.525 73.675 L 193.525 73.675 A 0.5 0.5 0 0 1 193.025 73.175 L 193.025 60.175 A 0.5 0.5 0 0 1 193.525 59.675 Z M 212.575 59.675 L 225.575 59.675 A 0.5 0.5 0 0 1 226.075 60.175 L 226.075 73.175 A 0.5 0.5 0 0 1 225.575 73.675 L 212.575 73.675 A 0.5 0.5 0 0 1 212.075 73.175 L 212.075 60.175 A 0.5 0.5 0 0 1 212.575 59.675 Z M 231.625 59.675 L 244.625 59.675 A 0.5 0.5 0 0 1 245.125 60.175 L 245.125 73.175 A 0.5 0.5 0 0 1 244.625 73.675 L 231.625 73.675 A 0.5 0.5 0 0 1 231.125 73.175 L 231.125 60.175 A 0.5 0.5 0 0 1 231.625 59.675 Z M 250.675 59.675 L 263.675 59.675 A 0.5 0.5 0 0 1 264.175 60.175 L 264.175 73.175 A 0.5 0.5 0 0 1 263.675 73.675 L 250.675 73.675 A 0.5 0.5 0 0 1 250.175 73.175 L 250.175 60.175 A 0.5 0.5 0 0 1 250.675 59.675 Z M 279.25 59.675 L 292.25 59.675 A 0.5 0.5 0 0 1 292.75 60.175 L 292.75 73.175 A 0.5 0.5 0 0 1 292.25 73.675 L 279.25 73.675 A 0.5 0.5 0 0 1 278.75 73.175 L 278.75 60.175 A 0.5 0.5 0 0 1 279.25 59.675 Z M 45.888 78.725 L 58.888 78.725 A 0.5 0.5 0 0 1 59.388 79.225 L 59.388 92.225 A 0.5 0.5 0 0 1 58.888 92.725 L 45.888 92.725 A 0.5 0.5 0 0 1 45.388 92.225 L 45.388 79.225 A 0.5 0.5 0 0 1 45.888 78.725 Z M 67.319 78.725 L 80.319 78.725 A 0.5 0.5 0 0 1 80.819 79.225 L 80.819 92.225 A 0.5 0.5 0 0 1 80.319 92.725 L 67.319 92.725 A 0.5 0.5 0 0 1 66.819 92.225 L 66.819 79.225 A 0.5 0.5 0 0 1 67.319 78.725 Z M 138.756 78.725 L 151.756 78.725 A 0.5 0.5 0 0 1 152.256 79.225 L 152.256 92.225 A 0.5 0.5 0 0 1 151.756 92.725 L 138.756 92.725 A 0.5 0.5 0 0 1 138.256 92.225 L 138.256 79.225 A 0.5 0.5 0 0 1 138.756 78.725 Z M 210.194 78.725 L 223.194 78.725 A 0.5 0.5 0 0 1 223.694 79.225 L 223.694 92.225 A 0.5 0.5 0 0 1 223.194 92.725 L 210.194 92.725 A 0.5 0.5 0 0 1 209.694 92.225 L 209.694 79.225 A 0.5 0.5 0 0 1 210.194 78.725 Z M 231.625 78.725 L 244.625 78.725 A 0.5 0.5 0 0 1 245.125 79.225 L 245.125 92.225 A 0.5 0.5 0 0 1 244.625 92.725 L 231.625 92.725 A 0.5 0.5 0 0 1 231.125 92.225 L 231.125 79.225 A 0.5 0.5 0 0 1 231.625 78.725 Z M 250.675 78.725 L 263.675 78.725 A 0.5 0.5 0 0 1 264.175 79.225 L 264.175 92.225 A 0.5 0.5 0 0 1 263.675 92.725 L 250.675 92.725 A 0.5 0.5 0 0 1 250.175 92.225 L 250.175 79.225 A 0.5 0.5 0 0 1 250.675 78.725 Z M 269.725 78.725 L 282.725 78.725 A 0.5 0.5 0 0 1 283.225 79.225 L 283.225 92.225 A 0.5 0.5 0 0 1 282.725 92.725 L 269.725 92.725 A 0.5 0.5 0 0 1 269.225 92.225 L 269.225 79.225 A 0.5 0.5 0 0 1 269.725 78.725 Z M 288.775 78.725 L 301.775 78.725 A 0.5 0.5 0 0 1 302.275 79.225 L 302.275 92.225 A 0.5 0.5 0 0 1 301.775 92.725 L 288.775 92.725 A 0.5 0.5 0 0 1 288.275 92.225 L 288.275 79.225 A 0.5 0.5 0 0 1 288.775 78.725 Z M 3.025 2.525 L 16.025 2.525 A 0.5 0.5 0 0 1 16.525 3.025 L 16.525 16.025 A 0.5 0.5 0 0 1 16.025 16.525 L 3.025 16.525 A 0.5 0.5 0 0 1 2.525 16.025 L 2.525 3.025 A 0.5 0.5 0 0 1 3.025 2.525 Z M 41.125 2.525 L 54.125 2.525 A 0.5 0.5 0 0 1 54.625 3.025 L 54.625 16.025 A 0.5 0.5 0 0 1 54.125 16.525 L 41.125 16.525 A 0.5 0.5 0 0 1 40.625 16.025 L 40.625 3.025 A 0.5 0.5 0 0 1 41.125 2.525 Z M 60.175 2.525 L 73.175 2.525 A 0.5 0.5 0 0 1 73.675 3.025 L 73.675 16.025 A 0.5 0.5 0 0 1 73.175 16.525 L 60.175 16.525 A 0.5 0.5 0 0 1 59.675 16.025 L 59.675 3.025 A 0.5 0.5 0 0 1 60.175 2.525 Z M 79.225 2.525 L 92.225 2.525 A 0.5 0.5 0 0 1 92.725 3.025 L 92.725 16.025 A 0.5 0.5 0 0 1 92.225 16.525 L 79.225 16.525 A 0.5 0.5 0 0 1 78.725 16.025 L 78.725 3.025 A 0.5 0.5 0 0 1 79.225 2.525 Z M 98.275 2.525 L 111.275 2.525 A 0.5 0.5 0 0 1 111.775 3.025 L 111.775 16.025 A 0.5 0.5 0 0 1 111.275 16.525 L 98.275 16.525 A 0.5 0.5 0 0 1 97.775 16.025 L 97.775 3.025 A 0.5 0.5 0 0 1 98.275 2.525 Z M 136.375 2.525 L 149.375 2.525 A 0.5 0.5 0 0 1 149.875 3.025 L 149.875 16.025 A 0.5 0.5 0 0 1 149.375 16.525 L 136.375 16.525 A 0.5 0.5 0 0 1 135.875 16.025 L 135.875 3.025 A 0.5 0.5 0 0 1 136.375 2.525 Z M 155.425 2.525 L 168.425 2.525 A 0.5 0.5 0 0 1 168.925 3.025 L 168.925 16.025 A 0.5 0.5 0 0 1 168.425 16.525 L 155.425 16.525 A 0.5 0.5 0 0 1 154.925 16.025 L 154.925 3.025 A 0.5 0.5 0 0 1 155.425 2.525 Z M 174.475 2.525 L 187.475 2.525 A 0.5 0.5 0 0 1 187.975 3.025 L 187.975 16.025 A 0.5 0.5 0 0 1 187.475 16.525 L 174.475 16.525 A 0.5 0.5 0 0 1 173.975 16.025 L 173.975 3.025 A 0.5 0.5 0 0 1 174.475 2.525 Z M 193.525 2.525 L 206.525 2.525 A 0.5 0.5 0 0 1 207.025 3.025 L 207.025 16.025 A 0.5 0.5 0 0 1 206.525 16.525 L 193.525 16.525 A 0.5 0.5 0 0 1 193.025 16.025 L 193.025 3.025 A 0.5 0.5 0 0 1 193.525 2.525 Z M 212.575 2.525 L 225.575 2.525 A 0.5 0.5 0 0 1 226.075 3.025 L 226.075 16.025 A 0.5 0.5 0 0 1 225.575 16.525 L 212.575 16.525 A 0.5 0.5 0 0 1 212.075 16.025 L 212.075 3.025 A 0.5 0.5 0 0 1 212.575 2.525 Z M 231.625 2.525 L 244.625 2.525 A 0.5 0.5 0 0 1 245.125 3.025 L 245.125 16.025 A 0.5 0.5 0 0 1 244.625 16.525 L 231.625 16.525 A 0.5 0.5 0 0 1 231.125 16.025 L 231.125 3.025 A 0.5 0.5 0 0 1 231.625 2.525 Z M 250.675 2.525 L 263.675 2.525 A 0.5 0.5 0 0 1 264.175 3.025 L 264.175 16.025 A 0.5 0.5 0 0 1 263.675 16.525 L 250.675 16.525 A 0.5 0.5 0 0 1 250.175 16.025 L 250.175 3.025 A 0.5 0.5 0 0 1 250.675 2.525 Z M 279.25 2.525 L 292.25 2.525 A 0.5 0.5 0 0 1 292.75 3.025 L 292.75 16.025 A 0.5 0.5 0 0 1 292.25 16.525 L 279.25 16.525 A 0.5 0.5 0 0 1 278.75 16.025 L 278.75 3.025 A 0.5 0.5 0 0 1 279.25 2.525 Z M 3.025 78.725 L 16.025 78.725 A 0.5 0.5 0 0 1 16.525 79.225 L 16.525 92.225 A 0.5 0.5 0 0 1 16.025 92.725 L 3.025 92.725 A 0.5 0.5 0 0 1 2.525 92.225 L 2.525 79.225 A 0.5 0.5 0 0 1 3.025 78.725 Z M 24.456 78.725 L 37.456 78.725 A 0.5 0.5 0 0 1 37.956 79.225 L 37.956 92.225 A 0.5 0.5 0 0 1 37.456 92.725 L 24.456 92.725 A 0.5 0.5 0 0 1 23.956 92.225 L 23.956 79.225 A 0.5 0.5 0 0 1 24.456 78.725 Z M 55.413 40.625 L 68.413 40.625 A 0.5 0.5 0 0 1 68.913 41.125 L 68.913 54.125 A 0.5 0.5 0 0 1 68.413 54.625 L 55.413 54.625 A 0.5 0.5 0 0 1 54.913 54.125 L 54.913 41.125 A 0.5 0.5 0 0 1 55.413 40.625 Z M 117.325 59.675 L 130.325 59.675 A 0.5 0.5 0 0 1 130.825 60.175 L 130.825 73.175 A 0.5 0.5 0 0 1 130.325 73.675 L 117.325 73.675 A 0.5 0.5 0 0 1 116.825 73.175 L 116.825 60.175 A 0.5 0.5 0 0 1 117.325 59.675 Z M 117.325 2.525 L 130.325 2.525 A 0.5 0.5 0 0 1 130.825 3.025 L 130.825 16.025 A 0.5 0.5 0 0 1 130.325 16.525 L 117.325 16.525 A 0.5 0.5 0 0 1 116.825 16.025 L 116.825 3.025 A 0.5 0.5 0 0 1 117.325 2.525 Z M 268.431 41.625 L 274.431 41.625 A 0.5 0.5 0 0 1 274.931 42.125 L 274.931 56.125 A 0.5 0.5 0 0 1 274.431 56.625 L 268.431 56.625 A 0.5 0.5 0 0 1 267.931 56.125 L 267.931 42.125 A 0.5 0.5 0 0 1 268.431 41.625 Z M 292.307 41.625 L 298.307 41.625 A 0.5 0.5 0 0 1 298.807 42.125 L 298.807 56.125 A 0.5 0.5 0 0 1 298.307 56.625 L 292.307 56.625 A 0.5 0.5 0 0 1 291.807 56.125 L 291.807 42.125 A 0.5 0.5 0 0 1 292.307 41.625 Z M 4.112 60.675 L 10.112 60.675 A 0.5 0.5 0 0 1 10.612 61.175 L 10.612 75.175 A 0.5 0.5 0 0 1 10.112 75.675 L 4.112 75.675 A 0.5 0.5 0 0 1 3.612 75.175 L 3.612 61.175 A 0.5 0.5 0 0 1 4.112 60.675 Z M 27.988 60.675 L 33.988 60.675 A 0.5 0.5 0 0 1 34.488 61.175 L 34.488 75.175 A 0.5 0.5 0 0 1 33.988 75.675 L 27.988 75.675 A 0.5 0.5 0 0 1 27.488 75.175 L 27.488 61.175 A 0.5 0.5 0 0 1 27.988 60.675 Z M 270.812 60.675 L 276.812 60.675 A 0.5 0.5 0 0 1 277.312 61.175 L 277.312 75.175 A 0.5 0.5 0 0 1 276.812 75.675 L 270.812 75.675 A 0.5 0.5 0 0 1 270.312 75.175 L 270.312 61.175 A 0.5 0.5 0 0 1 270.812 60.675 Z M 294.688 60.675 L 300.688 60.675 A 0.5 0.5 0 0 1 301.188 61.175 L 301.188 75.175 A 0.5 0.5 0 0 1 300.688 75.675 L 294.688 75.675 A 0.5 0.5 0 0 1 294.188 75.175 L 294.188 61.175 A 0.5 0.5 0 0 1 294.688 60.675 Z M 92.256 79.725 L 98.256 79.725 A 0.5 0.5 0 0 1 98.756 80.225 L 98.756 94.225 A 0.5 0.5 0 0 1 98.256 94.725 L 92.256 94.725 A 0.5 0.5 0 0 1 91.756 94.225 L 91.756 80.225 A 0.5 0.5 0 0 1 92.256 79.725 Z M 192.256 79.725 L 198.256 79.725 A 0.5 0.5 0 0 1 198.756 80.225 L 198.756 94.225 A 0.5 0.5 0 0 1 198.256 94.725 L 192.256 94.725 A 0.5 0.5 0 0 1 191.756 94.225 L 191.756 80.225 A 0.5 0.5 0 0 1 192.256 79.725 Z M 270.812 3.525 L 276.812 3.525 A 0.5 0.5 0 0 1 277.312 4.025 L 277.312 18.025 A 0.5 0.5 0 0 1 276.812 18.525 L 270.812 18.525 A 0.5 0.5 0 0 1 270.312 18.025 L 270.312 4.025 A 0.5 0.5 0 0 1 270.812 3.525 Z M 294.688 3.525 L 300.688 3.525 A 0.5 0.5 0 0 1 301.188 4.025 L 301.188 18.025 A 0.5 0.5 0 0 1 300.688 18.525 L 294.688 18.525 A 0.5 0.5 0 0 1 294.188 18.025 L 294.188 4.025 A 0.5 0.5 0 0 1 294.688 3.525 Z" vector-effect="non-scaling-stroke"/></g></svg>